<svg width="1000" height="1000" viewBox="0 0 1000 1000" fill="none" xmlns="http://www.w3.org/2000/svg">
<g clip-path="url(#clip0)">
<path d="M336.791 504.168V509.393H355.492V551.775H336.791V557H379.32V551.775H361.303V504.168H336.791ZM353.783 489.715C353.783 490.887 354.125 491.896 354.809 492.742C355.492 493.589 356.615 494.012 358.178 494.012C359.74 494.012 360.863 493.589 361.547 492.742C362.263 491.896 362.621 490.887 362.621 489.715C362.621 489.064 362.523 488.462 362.328 487.908C362.165 487.355 361.872 486.883 361.449 486.492C361.124 486.102 360.684 485.792 360.131 485.564C359.577 485.337 358.926 485.223 358.178 485.223C357.429 485.223 356.778 485.337 356.225 485.564C355.671 485.792 355.215 486.102 354.857 486.492C354.467 486.883 354.19 487.371 354.027 487.957C353.865 488.51 353.783 489.096 353.783 489.715ZM395.678 504.168H390.453V557H395.922L395.971 516.717C396.231 515.74 396.557 514.764 396.947 513.787C397.338 512.811 397.875 511.932 398.559 511.15C399.275 510.304 400.186 509.637 401.293 509.148C402.432 508.628 403.848 508.351 405.541 508.318C407.071 508.286 408.324 508.514 409.301 509.002C410.31 509.49 411.107 510.141 411.693 510.955C412.279 511.801 412.686 512.778 412.914 513.885C413.142 514.959 413.256 516.049 413.256 517.156L413.305 557H418.822L418.871 517.205C418.871 517.042 418.855 516.896 418.822 516.766C418.822 516.635 418.822 516.489 418.822 516.326C419.05 515.35 419.376 514.389 419.799 513.445C420.222 512.501 420.792 511.655 421.508 510.906C422.257 510.158 423.184 509.555 424.291 509.1C425.398 508.611 426.765 508.351 428.393 508.318C429.988 508.286 431.29 508.546 432.299 509.1C433.308 509.62 434.105 510.32 434.691 511.199C435.277 512.111 435.668 513.136 435.863 514.275C436.091 515.415 436.205 516.554 436.205 517.693L436.254 557H441.771L441.82 517.742C441.82 515.724 441.592 513.836 441.137 512.078C440.714 510.288 440.03 508.725 439.086 507.391C438.174 506.121 436.938 505.112 435.375 504.363C433.845 503.582 431.973 503.191 429.76 503.191C428.23 503.191 426.83 503.387 425.561 503.777C424.324 504.168 423.201 504.689 422.191 505.34C421.247 505.958 420.417 506.674 419.701 507.488C418.985 508.302 418.383 509.165 417.895 510.076C417.569 509.132 417.146 508.253 416.625 507.439C416.104 506.626 415.453 505.91 414.672 505.291C413.793 504.64 412.751 504.135 411.547 503.777C410.342 503.387 408.959 503.191 407.396 503.191C404.499 503.224 402.107 503.875 400.219 505.145C398.363 506.382 396.915 508.042 395.873 510.125L395.678 504.168ZM491.869 557H498.119V556.365C497.663 554.77 497.273 553.077 496.947 551.287C496.654 549.464 496.492 547.674 496.459 545.916V520.379C496.426 517.514 495.889 515.008 494.848 512.859C493.806 510.711 492.374 508.921 490.551 507.488C488.728 506.056 486.596 504.982 484.154 504.266C481.713 503.549 479.092 503.191 476.293 503.191C473.493 503.191 470.857 503.582 468.383 504.363C465.941 505.145 463.793 506.219 461.938 507.586C460.082 508.986 458.601 510.63 457.494 512.518C456.387 514.406 455.785 516.473 455.688 518.719L461.547 518.768C461.612 517.107 462.051 515.626 462.865 514.324C463.679 512.99 464.753 511.867 466.088 510.955C467.39 510.044 468.904 509.344 470.629 508.855C472.354 508.367 474.161 508.123 476.049 508.123C478.1 508.123 480.004 508.4 481.762 508.953C483.552 509.474 485.098 510.239 486.4 511.248C487.702 512.257 488.728 513.527 489.477 515.057C490.225 516.554 490.616 518.296 490.648 520.281V526.238H479.174C475.886 526.238 472.745 526.548 469.75 527.166C466.755 527.752 464.118 528.712 461.84 530.047C459.594 531.382 457.787 533.123 456.42 535.271C455.085 537.387 454.418 539.959 454.418 542.986C454.418 545.232 454.874 547.283 455.785 549.139C456.697 550.994 457.934 552.573 459.496 553.875C461.059 555.145 462.914 556.154 465.062 556.902C467.211 557.618 469.506 557.977 471.947 557.977C473.9 557.977 475.772 557.765 477.562 557.342C479.385 556.951 481.094 556.382 482.689 555.633C484.317 554.852 485.798 553.924 487.133 552.85C488.5 551.743 489.688 550.522 490.697 549.188C490.762 550.555 490.876 551.906 491.039 553.24C491.234 554.575 491.511 555.828 491.869 557ZM472.631 552.752C470.906 552.752 469.294 552.508 467.797 552.02C466.299 551.531 464.997 550.848 463.891 549.969C462.751 549.09 461.856 548.016 461.205 546.746C460.587 545.444 460.277 544.012 460.277 542.449C460.245 540.496 460.668 538.836 461.547 537.469C462.426 536.069 463.614 534.897 465.111 533.953C466.902 532.814 469.099 532.016 471.703 531.561C474.34 531.072 477.107 530.812 480.004 530.779H490.648V542.352C489.9 543.914 488.923 545.346 487.719 546.648C486.514 547.918 485.131 549.008 483.568 549.92C482.006 550.831 480.297 551.531 478.441 552.02C476.586 552.508 474.649 552.752 472.631 552.752ZM515.6 557H521.459V520.916C522.012 519.191 522.794 517.579 523.803 516.082C524.844 514.585 526.033 513.283 527.367 512.176C528.832 511.004 530.46 510.076 532.25 509.393C534.04 508.676 535.945 508.318 537.963 508.318C540.274 508.286 542.26 508.595 543.92 509.246C545.613 509.897 547.029 510.857 548.168 512.127C549.275 513.396 550.089 514.959 550.609 516.814C551.163 518.67 551.456 520.802 551.488 523.211V557H557.348L557.299 523.113C557.299 519.956 556.908 517.14 556.127 514.666C555.346 512.16 554.206 510.06 552.709 508.367C551.179 506.674 549.291 505.389 547.045 504.51C544.831 503.631 542.276 503.191 539.379 503.191C537.198 503.191 535.147 503.517 533.227 504.168C531.306 504.786 529.532 505.665 527.904 506.805C526.537 507.749 525.3 508.872 524.193 510.174C523.087 511.476 522.126 512.892 521.312 514.422L521.02 504.168H515.6V557ZM577.025 504.168V509.393H595.727V551.775H577.025V557H619.555V551.775H601.537V504.168H577.025ZM594.018 489.715C594.018 490.887 594.359 491.896 595.043 492.742C595.727 493.589 596.85 494.012 598.412 494.012C599.975 494.012 601.098 493.589 601.781 492.742C602.497 491.896 602.855 490.887 602.855 489.715C602.855 489.064 602.758 488.462 602.562 487.908C602.4 487.355 602.107 486.883 601.684 486.492C601.358 486.102 600.919 485.792 600.365 485.564C599.812 485.337 599.161 485.223 598.412 485.223C597.663 485.223 597.012 485.337 596.459 485.564C595.906 485.792 595.45 486.102 595.092 486.492C594.701 486.883 594.424 487.371 594.262 487.957C594.099 488.51 594.018 489.096 594.018 489.715ZM695.971 577.312H701.781V550.604C702.562 551.645 703.458 552.589 704.467 553.436C705.508 554.282 706.615 554.998 707.787 555.584C709.252 556.365 710.814 556.951 712.475 557.342C714.167 557.765 715.925 557.977 717.748 557.977C721.296 557.977 724.372 557.228 726.977 555.73C729.581 554.233 731.729 552.247 733.422 549.773C735.082 547.299 736.335 544.435 737.182 541.18C738.061 537.924 738.5 534.572 738.5 531.121V530.096C738.467 526.385 737.995 522.837 737.084 519.451C736.205 516.066 734.838 513.12 732.982 510.613C731.225 508.335 729.076 506.528 726.537 505.193C724.031 503.859 721.052 503.191 717.602 503.191C715.811 503.191 714.086 503.403 712.426 503.826C710.766 504.249 709.219 504.868 707.787 505.682C706.583 506.365 705.443 507.195 704.369 508.172C703.327 509.148 702.416 510.239 701.635 511.443L701.391 504.168H695.971V577.312ZM732.641 530.096V531.121C732.608 533.823 732.283 536.508 731.664 539.178C731.078 541.847 730.118 544.223 728.783 546.307C727.481 548.26 725.805 549.855 723.754 551.092C721.736 552.329 719.278 552.947 716.381 552.947C714.753 552.947 713.174 552.736 711.645 552.312C710.115 551.889 708.715 551.271 707.445 550.457C706.208 549.708 705.102 548.797 704.125 547.723C703.181 546.616 702.4 545.379 701.781 544.012V518.23C702.4 516.733 703.197 515.382 704.174 514.178C705.15 512.941 706.273 511.883 707.543 511.004C708.747 510.158 710.082 509.507 711.547 509.051C713.044 508.562 714.623 508.318 716.283 508.318C719.083 508.318 721.475 508.888 723.461 510.027C725.479 511.167 727.156 512.648 728.49 514.471C729.923 516.619 730.964 519.061 731.615 521.795C732.299 524.529 732.641 527.296 732.641 530.096ZM792.162 557H798.412V556.365C797.956 554.77 797.566 553.077 797.24 551.287C796.947 549.464 796.785 547.674 796.752 545.916V520.379C796.719 517.514 796.182 515.008 795.141 512.859C794.099 510.711 792.667 508.921 790.844 507.488C789.021 506.056 786.889 504.982 784.447 504.266C782.006 503.549 779.385 503.191 776.586 503.191C773.786 503.191 771.15 503.582 768.676 504.363C766.234 505.145 764.086 506.219 762.23 507.586C760.375 508.986 758.894 510.63 757.787 512.518C756.68 514.406 756.078 516.473 755.98 518.719L761.84 518.768C761.905 517.107 762.344 515.626 763.158 514.324C763.972 512.99 765.046 511.867 766.381 510.955C767.683 510.044 769.197 509.344 770.922 508.855C772.647 508.367 774.454 508.123 776.342 508.123C778.393 508.123 780.297 508.4 782.055 508.953C783.845 509.474 785.391 510.239 786.693 511.248C787.995 512.257 789.021 513.527 789.77 515.057C790.518 516.554 790.909 518.296 790.941 520.281V526.238H779.467C776.179 526.238 773.038 526.548 770.043 527.166C767.048 527.752 764.411 528.712 762.133 530.047C759.887 531.382 758.08 533.123 756.713 535.271C755.378 537.387 754.711 539.959 754.711 542.986C754.711 545.232 755.167 547.283 756.078 549.139C756.99 550.994 758.227 552.573 759.789 553.875C761.352 555.145 763.207 556.154 765.355 556.902C767.504 557.618 769.799 557.977 772.24 557.977C774.193 557.977 776.065 557.765 777.855 557.342C779.678 556.951 781.387 556.382 782.982 555.633C784.61 554.852 786.091 553.924 787.426 552.85C788.793 551.743 789.981 550.522 790.99 549.188C791.055 550.555 791.169 551.906 791.332 553.24C791.527 554.575 791.804 555.828 792.162 557ZM772.924 552.752C771.199 552.752 769.587 552.508 768.09 552.02C766.592 551.531 765.29 550.848 764.184 549.969C763.044 549.09 762.149 548.016 761.498 546.746C760.88 545.444 760.57 544.012 760.57 542.449C760.538 540.496 760.961 538.836 761.84 537.469C762.719 536.069 763.907 534.897 765.404 533.953C767.195 532.814 769.392 532.016 771.996 531.561C774.633 531.072 777.4 530.812 780.297 530.779H790.941V542.352C790.193 543.914 789.216 545.346 788.012 546.648C786.807 547.918 785.424 549.008 783.861 549.92C782.299 550.831 780.59 551.531 778.734 552.02C776.879 552.508 774.942 552.752 772.924 552.752ZM851.684 557H857.152V504.168H851.244V541.375C850.788 543.1 850.105 544.663 849.193 546.062C848.314 547.43 847.224 548.602 845.922 549.578C844.522 550.62 842.895 551.434 841.039 552.02C839.184 552.573 837.117 552.85 834.838 552.85C832.657 552.85 830.769 552.508 829.174 551.824C827.579 551.141 826.244 550.115 825.17 548.748C824.096 547.381 823.298 545.704 822.777 543.719C822.257 541.701 821.996 539.373 821.996 536.736V504.168H816.137V536.639C816.169 540.024 816.576 543.051 817.357 545.721C818.139 548.357 819.294 550.587 820.824 552.41C822.354 554.201 824.226 555.584 826.439 556.561C828.686 557.505 831.273 557.977 834.203 557.977C838.174 557.977 841.609 557.163 844.506 555.535C847.403 553.875 849.714 551.58 851.439 548.65L851.684 557ZM877.318 482V487.225H896.117V551.775H877.318V557H919.848V551.775H901.928V482H877.318Z" fill="white"/>
<path d="M174 575H129.448L90 535.695L174 452L258 535.695L218.552 575H174ZM174 575L173.768 574.769M173.768 574.769L134.552 535.695H212.983L173.768 574.769Z" stroke="white" stroke-width="5"/>
</g>
<defs>
<clipPath id="clip0">
<rect width="1000" height="1000" fill="white"/>
</clipPath>
</defs>
</svg>
