<svg width="1400" height="1400" viewBox="0 0 1400 1400" fill="none" xmlns="http://www.w3.org/2000/svg">
<circle cx="696.5" cy="696.5" r="691.5" stroke="white" stroke-width="10"/>
<path d="M491.4 1008V401.4H458.1V1008H491.4ZM433.8 1008V401.4H400.5V1008H433.8ZM908.592 738.9C1004.89 738.9 1054.39 689.4 1054.39 596.7C1054.39 511.2 997.692 456.3 909.492 456.3H738.492V738.9H908.592ZM771.792 1008V793.8H911.292C1039.09 793.8 1112.89 718.2 1112.89 594.9C1112.89 476.1 1031.89 401.4 912.192 401.4H679.992V1008H713.292V433.8H912.192C1012.09 433.8 1080.49 496.8 1080.49 594.9C1080.49 697.5 1017.49 761.4 911.292 761.4H738.492V1008H771.792ZM771.792 707.4V486.9H909.492C977.892 486.9 1021.09 531 1021.09 596.7C1021.09 666.9 983.292 707.4 908.592 707.4H771.792Z" fill="white"/>
</svg>
