<svg width="596" height="596" viewBox="0 0 596 596" fill="none" xmlns="http://www.w3.org/2000/svg">
<path d="M55.8885 156.552L300 15.1347L544.111 156.552V439.448L300 580.865L55.8885 439.448L55.8885 156.552Z" stroke="#5E38E0" stroke-width="21"/>
<path d="M184.789 376V353.441L206.762 349.047V244.604L183.471 240.209V217.504H243.676V349.047L265.502 353.441V376H184.789ZM205.297 181.615V147.484H243.676V181.615H205.297ZM279.857 436.938V414.232L301.244 409.838V244.604L277.953 240.209V217.504H334.35L336.693 236.254C341.674 229.32 347.631 223.998 354.564 220.287C361.596 216.479 369.896 214.574 379.467 214.574C392.357 214.574 403.393 218.09 412.572 225.121C421.752 232.152 428.734 241.967 433.52 254.564C438.402 267.162 440.844 281.908 440.844 298.803V301.879C440.844 317.309 438.402 330.834 433.52 342.455C428.637 353.979 421.605 362.963 412.426 369.408C403.246 375.854 392.26 379.076 379.467 379.076C361.693 379.076 347.875 372.826 338.012 360.326V409.838L360.57 414.232V436.938H279.857ZM368.334 350.658C380.443 350.658 389.379 346.215 395.141 337.328C401 328.344 403.93 316.527 403.93 301.879V298.803C403.93 282.494 400.951 269.262 394.994 259.105C389.135 248.852 380.15 243.725 368.041 243.725C361.205 243.725 355.248 245.287 350.17 248.412C345.092 251.439 341.039 255.736 338.012 261.303V333.959C344.359 345.092 354.467 350.658 368.334 350.658Z" fill="#5E38E0"/>
</svg>
